<svg xmlns="http://www.w3.org/2000/svg" xmlns:xlink="http://www.w3.org/1999/xlink" width="144" height="158" viewBox="0 0 144 158">
    <defs>
        <circle id="b" cx="70" cy="70" r="50"/>
        <filter id="a" width="183%" height="183%" x="-41.5%" y="-27.5%" filterUnits="objectBoundingBox">
            <feOffset dy="14" in="SourceAlpha" result="shadowOffsetOuter1"/>
            <feGaussianBlur in="shadowOffsetOuter1" result="shadowBlurOuter1" stdDeviation="11.5"/>
            <feColorMatrix in="shadowBlurOuter1" values="0 0 0 0 0.00392156863 0 0 0 0 0.137254902 0 0 0 0 0.329411765 0 0 0 0.44 0"/>
        </filter>
        <linearGradient id="c" x1="50.002%" x2="50.002%" y1="-.005%" y2="100%">
            <stop offset="0%" stop-color="#2AF598"/>
            <stop offset="100%" stop-color="#009EFD"/>
        </linearGradient>
    </defs>
    <g fill="none" fill-rule="evenodd" transform="translate(2 1)">
        <use fill="#000" filter="url(#a)" xlink:href="#b"/>
        <use fill="#FFF" xlink:href="#b"/>
        <circle cx="70" cy="70" r="70" stroke="#FFF" opacity=".2"/>
        <g fill="url(#c)" fill-rule="nonzero" transform="translate(41.429 41.429)">
            <path d="M24.06 32.914v2.228c0 2.433 2.082 4.568 4.456 4.568 2.415 0 4.455-2.075 4.455-4.53 0-2.115-2.068-3.3-5.443-5.059l-.042-.022c-2.573-1.341-6.879-3.586-6.879-9.144 0-3.517 2.402-6.494 5.68-7.44V8.521h4.457v4.996c3.279.95 5.68 3.943 5.68 7.48v2.228H31.97v-2.228c0-1.843-1.55-3.342-3.453-3.342-1.904 0-3.453 1.48-3.453 3.3 0 2.444 1.383 3.577 4.482 5.193l.043.022c1.767.921 3.593 1.873 5.034 3.144 1.861 1.642 2.805 3.615 2.805 5.865 0 2.358-.928 4.6-2.614 6.311a8.912 8.912 0 0 1-4.07 2.385v4.747h-4.455v-4.755c-3.794-1.032-6.683-4.61-6.683-8.725v-2.228h4.455zM52.687 5.18v8.25a28.53 28.53 0 0 0-7.894-8.275 28.347 28.347 0 0 0-16.277-5.1c-7.617 0-14.778 2.967-20.164 8.353C2.966 13.794 0 20.955 0 28.57h4.456c0-13.266 10.793-24.06 24.06-24.06 8.672 0 16.444 4.529 20.72 11.808h-7.688v4.455h15.595V5.18h-4.456zm-24.06 47.452c-8.672 0-16.444-4.529-20.72-11.808h7.688V36.37H0v15.594h4.456v-8.25a28.53 28.53 0 0 0 7.894 8.275 28.348 28.348 0 0 0 16.277 5.1c7.613 0 14.755-2.969 20.113-8.358 5.347-5.378 8.291-12.537 8.291-20.159h-4.455c0 13.267-10.744 24.06-23.949 24.06z"/>
        </g>
    </g>
</svg>
