<svg xmlns="http://www.w3.org/2000/svg" xmlns:xlink="http://www.w3.org/1999/xlink" width="144" height="158" viewBox="0 0 144 158">
    <defs>
        <circle id="b" cx="70" cy="70" r="50"/>
        <filter id="a" width="183%" height="183%" x="-41.5%" y="-27.5%" filterUnits="objectBoundingBox">
            <feOffset dy="14" in="SourceAlpha" result="shadowOffsetOuter1"/>
            <feGaussianBlur in="shadowOffsetOuter1" result="shadowBlurOuter1" stdDeviation="11.5"/>
            <feColorMatrix in="shadowBlurOuter1" values="0 0 0 0 0.00392156863 0 0 0 0 0.137254902 0 0 0 0 0.329411765 0 0 0 0.44 0"/>
        </filter>
        <linearGradient id="c" x1="-25.523%" x2="128.562%" y1="0%" y2="100%">
            <stop offset="0%" stop-color="#FBC2EB"/>
            <stop offset="100%" stop-color="#A18CD1"/>
        </linearGradient>
        <linearGradient id="d" x1="0%" x2="102%" y1="0%" y2="101%">
            <stop offset="0%" stop-color="#4364E9"/>
            <stop offset="100%" stop-color="#38F9D7"/>
        </linearGradient>
    </defs>
    <g fill="none" fill-rule="evenodd" transform="translate(2 1)">
        <use fill="#000" filter="url(#a)" xlink:href="#b"/>
        <use fill="#FFF" xlink:href="#b"/>
        <circle cx="70" cy="70" r="70" stroke="#FFF" opacity=".2"/>
        <g transform="translate(31.429 47.143)">
            <path fill="url(#c)" fill-rule="nonzero" d="M57.844 46.437c-12.629 3.149-25.418-4.536-28.567-17.164C26.128 16.644 33.813 3.854 46.442.706 59.07-2.444 71.86 5.242 75.009 17.87 78.157 30.5 70.472 43.29 57.844 46.437zM51.977 29.25v-.118c.352-1.597.763-3.135 1.174-4.732.058-.118.235-.295.352-.354.41-.178.822-.355 1.233-.474.94-.236 1.468-.768 1.585-1.715.059-.414.235-.828.352-1.301a40.02 40.02 0 0 0-2.818 1.124c.646-2.543 1.233-4.968 1.879-7.393H50.39c-.41 0-.528.118-.587.473l-2.465 9.226c0 .178-.177.355-.353.414-.528.237-1.115.414-1.644.651-.117 0-.293.06-.293.177a30.64 30.64 0 0 0-.763 2.485c.822-.355 1.526-.651 2.348-.947-.528 2.07-1.057 4.022-1.585 6.092h15.147c.293 0 .41-.059.47-.355.117-.591.293-1.123.469-1.715.059-.414.176-.828.294-1.301-3.17-.118-6.282-.178-9.452-.237z"/>
            <circle cx="24.286" cy="25.714" r="18.571" fill="#FFF"/>
            <path fill="url(#d)" fill-rule="nonzero" d="M29.273 47.866C16.644 51.014 3.854 43.33.706 30.7-2.444 18.073 5.242 5.283 17.87 2.134 30.5-1.014 43.29 6.67 46.437 19.3c3.149 12.628-4.536 25.418-17.164 28.567zM13.026 14.86c-.054.09-.054.09.18-.198-.018.847-.019 1.767-.037 2.614-.036.163.054.217.198.18.613.001 1.298-.016 2.001.038.703.055 1.226.614 1.226 1.227.07 3.967.049 7.88.028 11.792.054.523-.307.92-.92.919-.523.053-1.136.053-1.677.035-.216.054-.288.072-.307.306-.072.631-.199 1.352-.325 2.073-.073.325-.09.56-.163.884 1.839 0 3.606.02 5.373.04.036.143-.018.233 0 .306-.073 1.244-.056 2.542-.039 3.84-.036.162-.018.234.216.253.758-.036 1.515-.072 2.29-.035.235.018.217-.054.253-.216-.018-.685.037-1.389.019-2.074-.018-.685.037-1.388.02-2.073.685-.018 1.298-.017 1.91-.017.163.036.109.126.145.27-.073 1.245-.056 2.543-.039 3.841-.036.162-.018.234.216.253.686-.018 1.46.018 2.146 0 .397.055.379-.017.379-.323 0-1.226-.017-2.525-.016-3.75.018-.235.145-.343.379-.325 1.497-.143 2.975-.359 4.436-.953 1.118-.432 2.002-1.189 2.562-2.324.451-.955.596-1.91.633-2.993.018-.847-.125-1.73-.468-2.488-.54-.938-1.315-1.588-2.342-2.021-.343-.144-.667-.217-1.01-.361.145-.036.199-.126.27-.144.524-.36 1.03-.793 1.354-1.334.433-.72.542-1.514.56-2.361.001-1.226-.359-2.362-1.278-3.283a6.306 6.306 0 0 0-2.307-1.263l-2.65-.489c-.234-.018-.324-.072-.306-.306.054-.397.036-.776.019-1.154 0-.92 0-1.84-.017-2.831-.072.018-.09-.054-.162-.036-.847-.019-1.605.017-2.38-.02-.162-.036-.216.054-.18.199v.92a39.576 39.576 0 0 0-.039 2.92c-.054.09-.09.252-.162.27-.613 0-1.298.017-1.911.017.036-.162.018-.234 0-.306 0-1.226-.017-2.525-.016-3.75.036-.163.018-.235-.216-.253a22.7 22.7 0 0 1-2.218.016c-.234-.018-.288.072-.306.307.017 1.298.016 2.524.033 3.822-.018.234-.072.325-.307.306-.847-.018-1.676.035-2.524.017-.847-.019-1.677.035-2.524.016zm8.12 16.9c.02-1.154-.016-2.218.021-3.3-.036-.757.019-1.46-.017-2.218.019-.234 0-.306.235-.288 1.515-.071 3.101-.16 4.58.237.666.217 1.333.434 1.838.921 1.081.956.954 2.904-.309 3.678-.721.486-1.515.684-2.398.828-1.245.234-2.56.179-3.787.178 0 0-.09-.054-.162-.036zm4.226-8.868c-1.155.287-2.146.305-3.264.43-.307 0-.541-.018-.848-.018-.162-.037-.252-.09-.216-.253.055-1.623.056-3.155.04-4.76.017-.234.072-.324.306-.306 1.154.019 2.218-.017 3.336.164.72.127 1.478.398 2 .957 1.027 1.046.702 2.813-.597 3.443-.27.144-.613.307-.757.343z"/>
        </g>
    </g>
</svg>
