<svg xmlns="http://www.w3.org/2000/svg" xmlns:xlink="http://www.w3.org/1999/xlink" width="144" height="158" viewBox="0 0 144 158">
    <defs>
        <circle id="b" cx="70" cy="70" r="50"/>
        <filter id="a" width="183%" height="183%" x="-41.5%" y="-27.5%" filterUnits="objectBoundingBox">
            <feOffset dy="14" in="SourceAlpha" result="shadowOffsetOuter1"/>
            <feGaussianBlur in="shadowOffsetOuter1" result="shadowBlurOuter1" stdDeviation="11.5"/>
            <feColorMatrix in="shadowBlurOuter1" values="0 0 0 0 0.00392156863 0 0 0 0 0.137254902 0 0 0 0 0.329411765 0 0 0 0.44 0"/>
        </filter>
        <linearGradient id="c" x1="102%" x2="102%" y1="0%" y2="101%">
            <stop offset="0%" stop-color="#0BCCFF"/>
            <stop offset="100%" stop-color="#0984FF"/>
        </linearGradient>
    </defs>
    <g fill="none" fill-rule="evenodd" transform="translate(2 1)">
        <use fill="#000" filter="url(#a)" xlink:href="#b"/>
        <use fill="#FFF" xlink:href="#b"/>
        <circle cx="70" cy="70" r="70" stroke="#FFF" opacity=".2"/>
        <g fill="url(#c)" fill-rule="nonzero" transform="translate(45.714 45.714)">
            <path d="M44.44 4.125c-5.5-5.5-14.418-5.5-19.918 0-4.4 4.4-5.28 10.988-2.638 16.263L.02 42.253l-.013 6.305 12.226.013v-5.946h5.946v-5.947h5.947v-5.946l4.05-4.05c5.276 2.64 11.863 1.761 16.264-2.64 5.5-5.5 5.5-14.417 0-19.917zm-4.477 10.5a4.259 4.259 0 1 1-6.023-6.023 4.259 4.259 0 0 1 6.023 6.023z"/>
        </g>
    </g>
</svg>
