<svg xmlns="http://www.w3.org/2000/svg" xmlns:xlink="http://www.w3.org/1999/xlink" width="144" height="158" viewBox="0 0 144 158">
    <defs>
        <circle id="b" cx="70" cy="70" r="50"/>
        <filter id="a" width="183%" height="183%" x="-41.5%" y="-27.5%" filterUnits="objectBoundingBox">
            <feOffset dy="14" in="SourceAlpha" result="shadowOffsetOuter1"/>
            <feGaussianBlur in="shadowOffsetOuter1" result="shadowBlurOuter1" stdDeviation="11.5"/>
            <feColorMatrix in="shadowBlurOuter1" values="0 0 0 0 0.00392156863 0 0 0 0 0.137254902 0 0 0 0 0.329411765 0 0 0 0.44 0"/>
        </filter>
        <linearGradient id="c" x1="0%" x2="119.596%" y1="-73.844%" y2="149.667%">
            <stop offset="0%" stop-color="#660BFF"/>
            <stop offset="100%" stop-color="#09BBFF"/>
        </linearGradient>
    </defs>
    <g fill="none" fill-rule="evenodd" transform="translate(2 1)">
        <use fill="#000" filter="url(#a)" xlink:href="#b"/>
        <use fill="#FFF" xlink:href="#b"/>
        <circle cx="70" cy="70" r="70" stroke="#FFF" opacity=".2"/>
        <path fill="url(#c)" d="M89.999 80.658v6.452a4.297 4.297 0 0 1-1.397 3.187 4.315 4.315 0 0 1-3.3 1.114c-6.632-.719-13.001-2.98-18.597-6.602a41.978 41.978 0 0 1-12.93-12.904A42.506 42.506 0 0 1 47.16 53.26a4.296 4.296 0 0 1 1.11-3.287 4.314 4.314 0 0 1 3.179-1.401h6.464a4.307 4.307 0 0 1 4.31 3.699 27.569 27.569 0 0 0 1.508 6.043 4.295 4.295 0 0 1-.97 4.537l-2.736 2.732a34.443 34.443 0 0 0 12.929 12.903l2.736-2.731a4.316 4.316 0 0 1 4.547-.968 27.713 27.713 0 0 0 6.055 1.506A4.304 4.304 0 0 1 90 80.658z"/>
    </g>
</svg>
