<svg xmlns="http://www.w3.org/2000/svg" width="1095" height="1118" viewBox="0 0 1095 1118">
    <defs>
        <linearGradient id="a" x1="116.277%" x2="-59.781%" y1="100%" y2="-62.06%">
            <stop offset="0%" stop-color="#FFF" stop-opacity="0"/>
            <stop offset="100%" stop-color="#0081FF"/>
        </linearGradient>
    </defs>
    <g fill="none" fill-rule="evenodd">
        <g fill-rule="nonzero" stroke="#93B8FF" opacity=".2" transform="translate(-189 1)">
            <circle cx="558" cy="558" r="558" opacity=".8"/>
            <circle cx="558" cy="558" r="540" opacity=".6"/>
            <circle cx="558.5" cy="557.5" r="405.5" opacity=".8"/>
            <circle cx="558.5" cy="557.5" r="453.5" opacity=".6"/>
            <circle cx="559" cy="557" r="254" opacity=".6"/>
            <circle cx="559" cy="557" r="275" opacity=".6"/>
            <circle cx="559.5" cy="557.5" r="144.5" opacity=".8"/>
        </g>
        <g fill="url(#a)" transform="rotate(24 148.902 409.968)">
            <path d="M147.5 52c8.56 0 15.5-6.94 15.5-15.5 0-8.56-6.94-15.5-15.5-15.5-8.56 0-15.5 6.94-15.5 15.5 0 8.56 6.94 15.5 15.5 15.5z" opacity=".2"/>
            <path d="M136.5 28a4.5 4.5 0 1 0 0-9 4.5 4.5 0 0 0 0 9zM726.5 118c6.351 0 11.5-5.149 11.5-11.5S732.851 95 726.5 95s-11.5 5.149-11.5 11.5 5.149 11.5 11.5 11.5z" opacity=".2"/>
            <path d="M826.5 408c8.56 0 15.5-6.94 15.5-15.5 0-8.56-6.94-15.5-15.5-15.5-8.56 0-15.5 6.94-15.5 15.5 0 8.56 6.94 15.5 15.5 15.5zM1035 190a8 8 0 1 0 0-16 8 8 0 0 0 0 16zM1041.5 140c8.008 0 14.5-6.492 14.5-14.5s-6.492-14.5-14.5-14.5-14.5 6.492-14.5 14.5 6.492 14.5 14.5 14.5z" opacity=".1"/>
            <path d="M9.5 130a9.5 9.5 0 1 0 0-19 9.5 9.5 0 0 0 0 19z" opacity=".2"/>
            <path d="M137.5 292a9.5 9.5 0 1 0 0-19 9.5 9.5 0 0 0 0 19z" opacity=".1"/>
            <path d="M226 55a6 6 0 1 0 0-12 6 6 0 0 0 0 12zM606 171a6 6 0 1 0 0-12 6 6 0 0 0 0 12zM628 12a6 6 0 1 0 0-12 6 6 0 0 0 0 12z" opacity=".2"/>
            <path d="M617.5 23c5.799 0 10.5-4.701 10.5-10.5S623.299 2 617.5 2 607 6.701 607 12.5 611.701 23 617.5 23z" opacity=".1"/>
        </g>
    </g>
</svg>
