<svg xmlns="http://www.w3.org/2000/svg" width="1056" height="408" viewBox="0 0 1056 408">
    <defs>
        <linearGradient id="a" x1="116.277%" x2="-59.781%" y1="100%" y2="-62.06%">
            <stop offset="0%" stop-color="#FFF" stop-opacity="0"/>
            <stop offset="100%" stop-color="#0081FF"/>
        </linearGradient>
    </defs>
    <g fill="url(#a)" fill-rule="evenodd" transform="translate(-384 -2192)">
        <path d="M531.5 2244c8.56 0 15.5-6.94 15.5-15.5 0-8.56-6.94-15.5-15.5-15.5-8.56 0-15.5 6.94-15.5 15.5 0 8.56 6.94 15.5 15.5 15.5z" opacity=".2"/>
        <path d="M520.5 2220a4.5 4.5 0 1 0 0-9 4.5 4.5 0 0 0 0 9zM1110.5 2310c6.351 0 11.5-5.149 11.5-11.5s-5.149-11.5-11.5-11.5-11.5 5.149-11.5 11.5 5.149 11.5 11.5 11.5z" opacity=".2"/>
        <path d="M1210.5 2600c8.56 0 15.5-6.94 15.5-15.5 0-8.56-6.94-15.5-15.5-15.5-8.56 0-15.5 6.94-15.5 15.5 0 8.56 6.94 15.5 15.5 15.5zM1419 2382a8 8 0 1 0 0-16 8 8 0 0 0 0 16zM1425.5 2332c8.008 0 14.5-6.492 14.5-14.5s-6.492-14.5-14.5-14.5-14.5 6.492-14.5 14.5 6.492 14.5 14.5 14.5z" opacity=".1"/>
        <path d="M393.5 2322a9.5 9.5 0 1 0 0-19 9.5 9.5 0 0 0 0 19z" opacity=".2"/>
        <path d="M521.5 2484a9.5 9.5 0 1 0 0-19 9.5 9.5 0 0 0 0 19z" opacity=".1"/>
        <path d="M610 2247a6 6 0 1 0 0-12 6 6 0 0 0 0 12zM990 2363a6 6 0 1 0 0-12 6 6 0 0 0 0 12zM1012 2204a6 6 0 1 0 0-12 6 6 0 0 0 0 12z" opacity=".2"/>
        <path d="M1001.5 2215c5.799 0 10.5-4.701 10.5-10.5s-4.701-10.5-10.5-10.5-10.5 4.701-10.5 10.5 4.701 10.5 10.5 10.5z" opacity=".1"/>
    </g>
</svg>
