<svg xmlns="http://www.w3.org/2000/svg" xmlns:xlink="http://www.w3.org/1999/xlink" width="414" height="477" viewBox="0 0 414 477">
    <defs>
        <radialGradient id="a" cx="48.037%" cy="-25.076%" r="128.972%" fx="48.037%" fy="-25.076%" gradientTransform="matrix(0 .8668 -1 0 .23 -.667)">
            <stop offset="0%" stop-color="#6B8CCE"/>
            <stop offset="100%" stop-color="#0C3483"/>
        </radialGradient>
        <linearGradient id="c" x1="0%" x2="102%" y1="0%" y2="101%">
            <stop offset="0%" stop-color="#89F7FE"/>
            <stop offset="100%" stop-color="#66A6FF"/>
        </linearGradient>
        <path id="b" d="M1196.195 496.3v65.41-65.41zm-58.806-33.98l58.806 33.98L1255 462.32h-117.611zm0-1.326v67.962l58.806 33.98 58.805-33.98v-67.962l-58.805-33.98-58.806 33.98zm-233.584 33.912v65.412-65.412zM845 460.926l58.805 33.98 58.806-33.98H845zm0-1.325v67.962l58.805 33.982 58.806-33.982v-67.962l-58.806-33.98L845 459.601zm204.32-48.357v65.41-65.41zm-58.808-35.305l58.808 35.305 58.803-33.982-117.611-1.323zm0 0v67.96l58.808 33.98 58.803-33.98v-67.96l-58.803-33.982-58.808 33.982zm58.808 203.424v65.412-65.412zm-58.808-33.98l58.808 33.98 58.803-33.98H990.512zm0-1.325v67.962L1049.32 646l58.803-33.98v-67.962l-58.803-33.98-58.808 33.98zm205.683-217.777v64.016-64.016zm-58.806-33.982l58.806 33.982L1255 292.299h-117.611zm0-1.324v67.96l58.806 33.98 58.805-33.98v-67.96l-58.805-33.982-58.806 33.982zm-233.584 36.696v64.02-64.02zM845 293.691l58.805 33.98 58.806-33.98H845zm0-1.325v67.96l58.805 33.982 58.806-33.982v-67.96l-58.806-33.98L845 292.366zm204.32-50.079v66.803-66.803zm-58.808-33.98l58.808 33.98 58.803-33.98H990.512zm0-1.325v67.96l58.808 33.982 58.803-33.982v-67.96L1049.32 173l-58.808 33.982zm205.683 288.807L1050 411.309l-146.196 84.48h292.39zM1050 242.355l146.194 84.477V495.79L1050 580.266l-146.196-84.477V326.832l146.196-84.477z"/>
    </defs>
    <g fill="none" fill-rule="evenodd" stroke-linejoin="bevel" transform="translate(-843 -171)">
        <use stroke="url(#a)" stroke-width="2.4" xlink:href="#b"/>
        <use stroke="url(#c)" stroke-width="1.2" xlink:href="#b"/>
    </g>
</svg>
