<svg xmlns="http://www.w3.org/2000/svg" width="611" height="584" viewBox="0 0 611 584">
    <defs>
        <radialGradient id="a" r="54.1%" fx="50%" fy="50%">
            <stop offset="0%" stop-color="#FFF"/>
            <stop offset="100%" stop-color="#FFF" stop-opacity="0"/>
        </radialGradient>
    </defs>
    <g fill="url(#a)" fill-rule="evenodd" opacity=".4" style="mix-blend-mode:overlay" transform="translate(-829 -987)">
        <path d="M838.972 1565.473a5 5 0 1 1-5.497-4.445 4.999 4.999 0 0 1 5.497 4.445M1384.943 1122.947c.583 5.492-3.398 10.416-8.89 10.997-5.493.58-10.416-3.4-10.997-8.892-.58-5.49 3.399-10.415 8.891-10.995 5.493-.583 10.416 3.4 10.996 8.89M1176.944 1234.948c.58 5.492-3.4 10.415-8.892 10.995-5.49.583-10.415-3.398-10.995-8.89-.583-5.492 3.398-10.416 8.89-10.997 5.492-.58 10.414 3.4 10.997 8.892M987.944 1201.948c.58 5.491-3.4 10.415-8.892 10.996-5.491.58-10.415-3.4-10.996-8.892-.58-5.49 3.4-10.413 8.892-10.996 5.491-.58 10.413 3.4 10.996 8.892M1028.944 1065.948c.58 5.492-3.4 10.415-8.892 10.996-5.49.58-10.415-3.4-10.995-8.892-.583-5.49 3.398-10.415 8.89-10.996 5.492-.58 10.416 3.4 10.997 8.892M903.944 995.948c.58 5.492-3.4 10.415-8.892 10.995-5.492.583-10.415-3.398-10.995-8.89-.583-5.492 3.398-10.414 8.89-10.997 5.492-.58 10.414 3.4 10.997 8.892M1259.943 1364.948c.583 5.493-3.4 10.415-8.89 10.996-5.492.58-10.414-3.4-10.997-8.892-.58-5.492 3.4-10.415 8.892-10.995 5.492-.583 10.415 3.4 10.995 8.891M1298.41 1400.355a5 5 0 1 1-8.818-4.708 5 5 0 0 1 8.818 4.708M1172.878 1145.973c-2.47 4.628-8.225 6.376-12.852 3.906-4.627-2.471-6.375-8.226-3.905-12.852 2.47-4.628 8.225-6.377 12.852-3.905 4.628 2.47 6.377 8.224 3.905 12.85M931.88 1127.973a9.5 9.5 0 0 1-16.758-8.948 9.5 9.5 0 0 1 16.758 8.948M1429.528 1461.885a3.998 3.998 0 0 1-5.411 1.642 3.998 3.998 0 1 1 3.767-7.054 4 4 0 0 1 1.644 5.412M1379.528 1471.883a4 4 0 1 1-7.054-3.765 4 4 0 0 1 7.054 3.765M1420.528 1448.884a3.999 3.999 0 1 1-7.055-3.767 3.999 3.999 0 0 1 7.055 3.767M1421.837 1466.174a4 4 0 1 1 2.325 7.655 4 4 0 0 1-2.325-7.655M1434.837 1460.173a3.999 3.999 0 1 1 2.325 7.653 3.999 3.999 0 0 1-2.325-7.653M1430.837 1500.173a4 4 0 1 1 2.325 7.653 4 4 0 0 1-2.325-7.653M1411.838 1500.174a4 4 0 1 1 2.325 7.654 4 4 0 0 1-2.325-7.654M1044.838 1544.173a4 4 0 1 1 2.323 7.655 4 4 0 0 1-2.323-7.655M987.837 1498.173a4 4 0 1 1 2.324 7.655 4 4 0 0 1-2.324-7.655M1005.837 1499.173a4.001 4.001 0 0 1 4.99 2.665 3.998 3.998 0 1 1-7.653 2.325 3.999 3.999 0 0 1 2.663-4.99M1089.837 1232.174a4 4 0 1 1 2.326 7.653 4 4 0 0 1-2.326-7.653M1093.838 1217.173a3.999 3.999 0 1 1 2.323 7.653 3.999 3.999 0 0 1-2.323-7.653M841.837 1464.174a4 4 0 1 1 2.325 7.653 4 4 0 0 1-2.325-7.653M1080.837 1162.173a4 4 0 1 1 2.324 7.653 4 4 0 0 1-2.324-7.653M1421.837 1485.174a4 4 0 1 1 2.326 7.654 4 4 0 0 1-2.326-7.654M1400.837 1486.174a4 4 0 0 1 4.99 2.663 4 4 0 0 1-2.665 4.989 3.999 3.999 0 1 1-2.324-7.652"/>
    </g>
</svg>
