<svg xmlns="http://www.w3.org/2000/svg" width="928" height="408" viewBox="0 0 928 408">
    <defs>
        <linearGradient id="a" x1="116.277%" x2="-59.781%" y1="100%" y2="-62.06%">
            <stop offset="0%" stop-color="#FFF" stop-opacity="0"/>
            <stop offset="100%" stop-color="#0081FF"/>
        </linearGradient>
    </defs>
    <g fill="url(#a)" fill-rule="evenodd" transform="translate(-104 -3853)">
        <path d="M123.5 3905c8.56 0 15.5-6.94 15.5-15.5 0-8.56-6.94-15.5-15.5-15.5-8.56 0-15.5 6.94-15.5 15.5 0 8.56 6.94 15.5 15.5 15.5z" opacity=".2"/>
        <path d="M112.5 3881a4.5 4.5 0 1 0 0-9 4.5 4.5 0 0 0 0 9zM702.5 3971c6.351 0 11.5-5.149 11.5-11.5s-5.149-11.5-11.5-11.5-11.5 5.149-11.5 11.5 5.149 11.5 11.5 11.5z" opacity=".2"/>
        <path d="M802.5 4261c8.56 0 15.5-6.94 15.5-15.5 0-8.56-6.94-15.5-15.5-15.5-8.56 0-15.5 6.94-15.5 15.5 0 8.56 6.94 15.5 15.5 15.5zM1011 4043a8 8 0 1 0 0-16 8 8 0 0 0 0 16zM1017.5 3993c8.008 0 14.5-6.492 14.5-14.5s-6.492-14.5-14.5-14.5-14.5 6.492-14.5 14.5 6.492 14.5 14.5 14.5zM113.5 4145a9.5 9.5 0 1 0 0-19 9.5 9.5 0 0 0 0 19z" opacity=".1"/>
        <path d="M202 3908a6 6 0 1 0 0-12 6 6 0 0 0 0 12zM582 4024a6 6 0 1 0 0-12 6 6 0 0 0 0 12zM604 3865a6 6 0 1 0 0-12 6 6 0 0 0 0 12z" opacity=".2"/>
        <path d="M593.5 3876c5.799 0 10.5-4.701 10.5-10.5s-4.701-10.5-10.5-10.5-10.5 4.701-10.5 10.5 4.701 10.5 10.5 10.5z" opacity=".1"/>
    </g>
</svg>
