<svg xmlns="http://www.w3.org/2000/svg" width="1018" height="393" viewBox="0 0 1018 393">
    <defs>
        <linearGradient id="a" x1="116.277%" x2="-59.781%" y1="100%" y2="-62.06%">
            <stop offset="0%" stop-color="#FFF" stop-opacity="0"/>
            <stop offset="100%" stop-color="#0081FF"/>
        </linearGradient>
    </defs>
    <g fill="url(#a)" fill-rule="evenodd" opacity=".5" transform="translate(-202 -501)">
        <path d="M345 551c8.284 0 15-6.716 15-15 0-8.284-6.716-15-15-15-8.284 0-15 6.716-15 15 0 8.284 6.716 15 15 15z"/>
        <path d="M334.5 528a4.5 4.5 0 1 0 0-9 4.5 4.5 0 0 0 0 9zM902 615c6.075 0 11-4.925 11-11s-4.925-11-11-11-11 4.925-11 11 4.925 11 11 11zM999 894c8.284 0 15-6.716 15-15 0-8.284-6.716-15-15-15-8.284 0-15 6.716-15 15 0 8.284 6.716 15 15 15zM1199.5 683a7.5 7.5 0 1 0 0-15 7.5 7.5 0 0 0 0 15zM1206 636c7.732 0 14-6.268 14-14s-6.268-14-14-14-14 6.268-14 14 6.268 14 14 14zM211 626a9 9 0 1 0 0-18 9 9 0 0 0 0 18zM335 782a9 9 0 1 0 0-18 9 9 0 0 0 0 18zM420 554a6 6 0 1 0 0-12 6 6 0 0 0 0 12zM787 666a6 6 0 1 0 0-12 6 6 0 0 0 0 12zM807 513a6 6 0 1 0 0-12 6 6 0 0 0 0 12z"/>
        <path d="M797 523c5.523 0 10-4.477 10-10s-4.477-10-10-10-10 4.477-10 10 4.477 10 10 10z"/>
    </g>
</svg>
