<?xml version="1.0" encoding="UTF-8"?>
<svg width="1477px" height="573px" viewBox="0 0 1477 573" version="1.1" xmlns="http://www.w3.org/2000/svg" xmlns:xlink="http://www.w3.org/1999/xlink">
    <!-- Generator: Sketch 51.2 (57519) - http://www.bohemiancoding.com/sketch -->
    <title>Particles</title>
    <desc>Created with Sketch.</desc>
    <defs>
        <linearGradient x1="116.276777%" y1="100%" x2="-59.7806731%" y2="-62.0595689%" id="linearGradient-1">
            <stop stop-color="#FFFFFF" stop-opacity="0" offset="0%"></stop>
            <stop stop-color="#0081FF" offset="100%"></stop>
        </linearGradient>
    </defs>
    <g id="Main" stroke="none" stroke-width="1" fill="none" fill-rule="evenodd">
        <g id="Particles" fill="url(#linearGradient-1)">
            <path d="M143,50 C151.284271,50 158,43.2842712 158,35 C158,26.7157288 151.284271,20 143,20 C134.715729,20 128,26.7157288 128,35 C128,43.2842712 134.715729,50 143,50 Z" id="Oval-7" opacity="0.200000003"></path>
            <path d="M132.5,27 C134.985281,27 137,24.9852814 137,22.5 C137,20.0147186 134.985281,18 132.5,18 C130.014719,18 128,20.0147186 128,22.5 C128,24.9852814 130.014719,27 132.5,27 Z" id="Oval-7" opacity="0.200000003"></path>
            <path d="M700,114 C706.075132,114 711,109.075132 711,103 C711,96.9248678 706.075132,92 700,92 C693.924868,92 689,96.9248678 689,103 C689,109.075132 693.924868,114 700,114 Z" id="Oval-7" opacity="0.200000003"></path>
            <path d="M797,393 C805.284271,393 812,386.284271 812,378 C812,369.715729 805.284271,363 797,363 C788.715729,363 782,369.715729 782,378 C782,386.284271 788.715729,393 797,393 Z" id="Oval-7" opacity="0.100000001"></path>
            <path d="M997.5,182 C1001.64214,182 1005,178.642136 1005,174.5 C1005,170.357864 1001.64214,167 997.5,167 C993.357864,167 990,170.357864 990,174.5 C990,178.642136 993.357864,182 997.5,182 Z" id="Oval-7" opacity="0.100000001"></path>
            <path d="M1004,135 C1011.73199,135 1018,128.731986 1018,121 C1018,113.268014 1011.73199,107 1004,107 C996.268014,107 990,113.268014 990,121 C990,128.731986 996.268014,135 1004,135 Z" id="Oval-7" opacity="0.100000001"></path>
            <path d="M9,125 C13.9705627,125 18,120.970563 18,116 C18,111.029437 13.9705627,107 9,107 C4.02943725,107 0,111.029437 0,116 C0,120.970563 4.02943725,125 9,125 Z" id="Oval-7" opacity="0.200000003"></path>
            <path d="M133,281 C137.970563,281 142,276.970563 142,272 C142,267.029437 137.970563,263 133,263 C128.029437,263 124,267.029437 124,272 C124,276.970563 128.029437,281 133,281 Z" id="Oval-7" opacity="0.100000001"></path>
            <path d="M218,53 C221.313708,53 224,50.3137085 224,47 C224,43.6862915 221.313708,41 218,41 C214.686292,41 212,43.6862915 212,47 C212,50.3137085 214.686292,53 218,53 Z" id="Oval-7" opacity="0.200000003"></path>
            <path d="M585,165 C588.313708,165 591,162.313708 591,159 C591,155.686292 588.313708,153 585,153 C581.686292,153 579,155.686292 579,159 C579,162.313708 581.686292,165 585,165 Z" id="Oval-7" opacity="0.200000003"></path>
            <path d="M605,12 C608.313708,12 611,9.3137085 611,6 C611,2.6862915 608.313708,0 605,0 C601.686292,0 599,2.6862915 599,6 C599,9.3137085 601.686292,12 605,12 Z" id="Oval-7" opacity="0.200000003"></path>
            <path d="M595,22 C600.522847,22 605,17.5228475 605,12 C605,6.4771525 600.522847,2 595,2 C589.477153,2 585,6.4771525 585,12 C585,17.5228475 589.477153,22 595,22 Z" id="Oval-7" opacity="0.100000001"></path>
            <path d="M1172,505 C1178.07513,505 1183,500.075132 1183,494 C1183,487.924868 1178.07513,483 1172,483 C1165.92487,483 1161,487.924868 1161,494 C1161,500.075132 1165.92487,505 1172,505 Z" id="Oval-7" opacity="0.200000003"></path>
            <path d="M1469.5,573 C1473.64214,573 1477,569.642136 1477,565.5 C1477,561.357864 1473.64214,558 1469.5,558 C1465.35786,558 1462,561.357864 1462,565.5 C1462,569.642136 1465.35786,573 1469.5,573 Z" id="Oval-7" opacity="0.100000001"></path>
            <path d="M1057,556 C1060.31371,556 1063,553.313708 1063,550 C1063,546.686292 1060.31371,544 1057,544 C1053.68629,544 1051,546.686292 1051,550 C1051,553.313708 1053.68629,556 1057,556 Z" id="Oval-7" opacity="0.200000003"></path>
            <path d="M1067,413 C1072.52285,413 1077,408.522847 1077,403 C1077,397.477153 1072.52285,393 1067,393 C1061.47715,393 1057,397.477153 1057,403 C1057,408.522847 1061.47715,413 1067,413 Z" id="Oval-7" opacity="0.100000001"></path>
        </g>
    </g>
</svg>