<svg xmlns="http://www.w3.org/2000/svg" width="1024" height="496" viewBox="0 0 1024 496">
    <defs>
        <linearGradient id="a" x1="116.277%" x2="-59.781%" y1="100%" y2="-62.06%">
            <stop offset="0%" stop-color="#FFF" stop-opacity="0"/>
            <stop offset="100%" stop-color="#0081FF"/>
        </linearGradient>
    </defs>
    <g fill="url(#a)" fill-rule="evenodd" transform="translate(-265 -4510)">
        <path d="M445 4573c10.493 0 19-8.507 19-19s-8.507-19-19-19-19 8.507-19 19 8.507 19 19 19z" opacity=".2"/>
        <path d="M431.5 4544a5.5 5.5 0 1 0 0-11 5.5 5.5 0 0 0 0 11zM1148 4654c7.732 0 14-6.268 14-14s-6.268-14-14-14-14 6.268-14 14 6.268 14 14 14z" opacity=".2"/>
        <path d="M1270 5006c10.493 0 19-8.507 19-19s-8.507-19-19-19-19 8.507-19 19 8.507 19 19 19z" opacity=".1"/>
        <path d="M276.5 4668c6.351 0 11.5-5.149 11.5-11.5s-5.149-11.5-11.5-11.5-11.5 5.149-11.5 11.5 5.149 11.5 11.5 11.5z" opacity=".2"/>
        <path d="M432.5 4865c6.351 0 11.5-5.149 11.5-11.5s-5.149-11.5-11.5-11.5-11.5 5.149-11.5 11.5 5.149 11.5 11.5 11.5z" opacity=".1"/>
        <path d="M539.5 4577a7.5 7.5 0 1 0 0-15 7.5 7.5 0 0 0 0 15zM1002.5 4718a7.5 7.5 0 1 0 0-15 7.5 7.5 0 0 0 0 15zM1028.5 4525a7.5 7.5 0 1 0 0-15 7.5 7.5 0 0 0 0 15z" opacity=".2"/>
        <path d="M1015.5 4538c6.904 0 12.5-5.596 12.5-12.5s-5.596-12.5-12.5-12.5-12.5 5.596-12.5 12.5 5.596 12.5 12.5 12.5z" opacity=".1"/>
    </g>
</svg>
