<svg xmlns="http://www.w3.org/2000/svg" width="682" height="639" viewBox="0 0 682 639">
    <defs>
        <linearGradient id="a" x1="116.277%" x2="-59.781%" y1="100%" y2="-62.06%">
            <stop offset="0%" stop-color="#FFF" stop-opacity="0"/>
            <stop offset="100%" stop-color="#0081FF"/>
        </linearGradient>
    </defs>
    <g fill="url(#a)" fill-rule="evenodd" transform="translate(-717 -847)">
        <path d="M880.546 882.498c7.82 3.482 16.983-.035 20.465-7.856 3.481-7.82-.036-16.982-7.856-20.464-7.82-3.482-16.983.035-20.464 7.856-3.482 7.82.035 16.982 7.855 20.464z" opacity=".2"/>
        <path d="M880.259 856.099a4.5 4.5 0 1 0 3.66-8.222 4.5 4.5 0 0 0-3.66 8.222zM1382.644 1178.293c5.803 2.583 12.6-.027 15.184-5.829 2.583-5.802-.026-12.6-5.829-15.183-5.802-2.583-12.6.026-15.183 5.828-2.583 5.802.026 12.6 5.828 15.184z" opacity=".2"/>
        <path d="M1356.045 1483.894c7.82 3.482 16.983-.035 20.465-7.855 3.482-7.82-.036-16.983-7.856-20.465-7.82-3.481-16.982.036-20.464 7.856-3.482 7.82.035 16.983 7.855 20.464z" opacity=".1"/>
        <path d="M722.751 897.625a9.5 9.5 0 1 0 7.728-17.357 9.5 9.5 0 0 0-7.728 17.357z" opacity=".2"/>
        <path d="M773.794 1097.682a9.5 9.5 0 1 0 7.728-17.358 9.5 9.5 0 0 0-7.728 17.358z" opacity=".1"/>
        <path d="M951.04 917.167a6 6 0 1 0 4.88-10.962 6 6 0 0 0-4.88 10.962zM1251.005 1177.699a6 6 0 1 0 4.881-10.963 6 6 0 0 0-4.88 10.963zM1335.774 1041.393a6 6 0 1 0 4.881-10.962 6 6 0 0 0-4.88 10.962z" opacity=".2"/>
        <path d="M1321.708 1047.171c5.298 2.36 11.504-.023 13.863-5.321s-.024-11.504-5.322-13.863c-5.297-2.359-11.504.024-13.863 5.321-2.358 5.298.024 11.505 5.322 13.863z" opacity=".1"/>
    </g>
</svg>
